<svg width="100" height="100" viewBox="0 0 100 100" fill="none" xmlns="http://www.w3.org/2000/svg">
    <path d="M50 50H70.8333V70.8333H50V50ZM79.1667 12.5H75V4.16666H66.6667V12.5H33.3333V4.16666H25V12.5H20.8333C16.25 12.5 12.5 16.25 12.5 20.8333V79.1667C12.5 83.75 16.25 87.5 20.8333 87.5H79.1667C83.75 87.5 87.5 83.75 87.5 79.1667V20.8333C87.5 16.25 83.75 12.5 79.1667 12.5ZM79.1667 20.8333V29.1667H20.8333V20.8333H79.1667ZM20.8333 79.1667V37.5H79.1667V79.1667H20.8333Z" fill="url(#paint0_linear_14_29)"/>
    <defs>
        <linearGradient id="paint0_linear_14_29" x1="50" y1="4.16666" x2="50" y2="87.5" gradientUnits="userSpaceOnUse">
            <stop stop-color="#02AABD"/>
            <stop offset="1" stop-color="#00CDAC"/>
        </linearGradient>
    </defs>
</svg>
