<svg width="100" height="100" viewBox="0 0 100 100" fill="none" xmlns="http://www.w3.org/2000/svg">
    <path d="M20.325 12.5125H79.7166C80.3741 12.5124 81.0222 12.6679 81.6081 12.9663C82.1939 13.2646 82.7009 13.6974 83.0875 14.2292L99.0125 36.1292C99.2957 36.5188 99.4351 36.9946 99.4069 37.4755C99.3788 37.9564 99.185 38.4126 98.8583 38.7667L51.55 90.0167C51.1763 90.423 50.6566 90.6644 50.105 90.6878C49.5534 90.7113 49.0151 90.5148 48.6083 90.1417L1.17914 38.7625C0.852492 38.4085 0.658613 37.9522 0.630505 37.4713C0.602396 36.9904 0.741795 36.5147 1.02498 36.125L16.9541 14.225C17.3407 13.6932 17.8477 13.2604 18.4335 12.9621C19.0194 12.6637 19.6675 12.5124 20.325 12.5125ZM22.4458 20.8458L10.7791 36.8875L50.0208 79.3917L89.2583 36.8833L77.5916 20.8417H22.45L22.4458 20.8458Z" fill="url(#paint0_linear_6_21)"/>
    <defs>
        <linearGradient id="paint0_linear_6_21" x1="50.0187" y1="12.5083" x2="50.0187" y2="90.6897" gradientUnits="userSpaceOnUse">
            <stop stop-color="#02AABD"/>
            <stop offset="1" stop-color="#00CDAC"/>
        </linearGradient>
    </defs>
</svg>
