<svg width="100" height="100" viewBox="0 0 100 100" fill="none" xmlns="http://www.w3.org/2000/svg">
    <path d="M29.1666 35.4167L37.4999 27.0833L29.1666 18.75L20.8333 27.0833L29.1666 35.4167ZM16.6666 58.3333C14.3749 58.3333 12.4124 57.5167 10.7791 55.8833C9.14576 54.25 8.33048 52.2889 8.33326 50V12.5C8.33326 10.2083 9.14993 8.24583 10.7833 6.6125C12.4166 4.97916 14.3777 4.16389 16.6666 4.16666H83.3333C85.6249 4.16666 87.5874 4.98333 89.2208 6.61666C90.8541 8.25 91.6694 10.2111 91.6666 12.5V50C91.6666 52.2917 90.8499 54.2542 89.2166 55.8875C87.5833 57.5208 85.6222 58.3361 83.3333 58.3333H69.8958C70.3124 56.9444 70.5902 55.5555 70.7291 54.1667C70.868 52.7778 70.868 51.3889 70.7291 50H83.3333V12.5H16.6666V50H29.2708C29.1319 51.3889 29.1319 52.7778 29.2708 54.1667C29.4097 55.5555 29.6874 56.9444 30.1041 58.3333H16.6666ZM68.7499 29.1667C70.486 29.1667 71.9624 28.5583 73.1791 27.3417C74.3958 26.125 75.0027 24.65 74.9999 22.9167C74.9999 21.1806 74.3916 19.7042 73.1749 18.4875C71.9583 17.2708 70.4833 16.6639 68.7499 16.6667C67.0138 16.6667 65.5374 17.275 64.3208 18.4917C63.1041 19.7083 62.4972 21.1833 62.4999 22.9167C62.4999 24.6528 63.1083 26.1292 64.3249 27.3458C65.5416 28.5625 67.0166 29.1694 68.7499 29.1667ZM20.8333 95.8333V87.0833C20.8333 84.6528 21.511 82.3958 22.8666 80.3125C24.2221 78.2292 26.0097 76.6667 28.2291 75.625C31.6319 74.0278 35.1735 72.8292 38.8541 72.0292C42.5346 71.2292 46.2499 70.8306 49.9999 70.8333C53.7499 70.8333 57.4652 71.2333 61.1458 72.0333C64.8263 72.8333 68.368 74.0305 71.7708 75.625C73.993 76.6667 75.7819 78.2292 77.1374 80.3125C78.493 82.3958 79.1694 84.6528 79.1666 87.0833V95.8333H20.8333ZM29.1666 87.5H70.8333V87.0833C70.8333 86.25 70.5902 85.4861 70.1041 84.7917C69.618 84.0972 68.993 83.5764 68.2291 83.2292C65.3124 81.9097 62.3263 80.9028 59.2708 80.2083C56.2152 79.5139 53.1249 79.1667 49.9999 79.1667C46.8749 79.1667 43.7846 79.5139 40.7291 80.2083C37.6735 80.9028 34.6874 81.9097 31.7708 83.2292C31.0069 83.5764 30.3819 84.0972 29.8958 84.7917C29.4097 85.4861 29.1666 86.25 29.1666 87.0833V87.5ZM49.9999 66.6667C45.9722 66.6667 42.5346 65.2431 39.6874 62.3958C36.8402 59.5486 35.4166 56.1111 35.4166 52.0833C35.4166 48.0556 36.8402 44.618 39.6874 41.7708C42.5346 38.9236 45.9722 37.5 49.9999 37.5C54.0277 37.5 57.4652 38.9236 60.3124 41.7708C63.1597 44.618 64.5833 48.0556 64.5833 52.0833C64.5833 56.1111 63.1597 59.5486 60.3124 62.3958C57.4652 65.2431 54.0277 66.6667 49.9999 66.6667ZM49.9999 58.3333C51.736 58.3333 53.2124 57.725 54.4291 56.5083C55.6458 55.2917 56.2527 53.8167 56.2499 52.0833C56.2499 50.3472 55.6416 48.8708 54.4249 47.6542C53.2083 46.4375 51.7333 45.8306 49.9999 45.8333C48.2638 45.8333 46.7874 46.4417 45.5708 47.6583C44.3541 48.875 43.7472 50.35 43.7499 52.0833C43.7499 53.8194 44.3583 55.2958 45.5749 56.5125C46.7916 57.7292 48.2666 58.3361 49.9999 58.3333Z" fill="url(#paint0_linear_5_19)"/>
    <defs>
        <linearGradient id="paint0_linear_5_19" x1="49.9999" y1="4.16666" x2="49.9999" y2="95.8333" gradientUnits="userSpaceOnUse">
            <stop stop-color="#02AABD"/>
            <stop offset="1" stop-color="#00CDAC"/>
        </linearGradient>
    </defs>
</svg>
