<svg width="100" height="100" viewBox="0 0 100 100" fill="none" xmlns="http://www.w3.org/2000/svg">
    <g clip-path="url(#clip0_14_34)">
        <path fill-rule="evenodd" clip-rule="evenodd" d="M11.1916 43.5917C10.224 44.559 9.45649 45.7074 8.93283 46.9714C8.40917 48.2354 8.13965 49.5902 8.13965 50.9583C8.13965 52.3265 8.40917 53.6813 8.93283 54.9453C9.45649 56.2093 10.224 57.3577 11.1916 58.325L22.9791 70.1083C24.5252 71.653 26.5179 72.6723 28.6752 73.0219C30.8325 73.3714 33.0452 73.0336 34.9999 72.0563C36.9547 71.0789 38.5525 69.5115 39.5672 67.5758C40.582 65.6402 40.9622 63.4345 40.6541 61.2708L44.7083 57.2167L70.0333 86.4417C71.0802 87.6485 72.3644 88.6268 73.8059 89.3156C75.2474 90.0045 76.8152 90.3892 78.4119 90.4458C80.0085 90.5023 81.5997 90.2295 83.0863 89.6443C84.5729 89.0592 85.9231 88.1742 87.0528 87.0445C88.1825 85.9148 89.0674 84.5646 89.6526 83.078C90.2378 81.5914 90.5106 80.0002 90.454 78.4036C90.3975 76.807 90.0128 75.2391 89.3239 73.7976C88.635 72.3561 87.6567 71.0719 86.4499 70.025L57.2291 44.6958L61.2791 40.6458C63.4436 40.9551 65.6505 40.5754 67.5872 39.5606C69.5239 38.5457 71.0922 36.9472 72.0698 34.9915C73.0474 33.0358 73.3849 30.822 73.0343 28.6638C72.6838 26.5056 71.663 24.5124 70.1166 22.9667L58.3333 11.1875C56.7873 9.64062 54.7937 8.61954 52.635 8.269C50.4763 7.91846 48.262 8.25624 46.306 9.23447C44.35 10.2127 42.7515 11.7818 41.7371 13.7192C40.7226 15.6567 40.3437 17.8643 40.6541 20.0292L20.0291 40.65C18.4291 40.4208 16.7977 40.5677 15.2643 41.0791C13.731 41.5905 12.3379 42.4522 11.1958 43.5958L11.1916 43.5917ZM53.9166 36.2292L36.2416 53.9042L27.3999 45.0667L45.0791 27.3875L53.9166 36.2292ZM17.0833 52.4333C16.8896 52.2399 16.7359 52.0102 16.6309 51.7574C16.526 51.5046 16.4719 51.2336 16.4717 50.9598C16.4715 50.6861 16.5252 50.415 16.6298 50.162C16.7344 49.909 16.8877 49.6791 17.0812 49.4854C17.2746 49.2917 17.5043 49.138 17.7571 49.0331C18.0099 48.9282 18.281 48.874 18.5547 48.8739C18.8284 48.8737 19.0995 48.9274 19.3525 49.032C19.6055 49.1365 19.8354 49.2899 20.0291 49.4833L31.8166 61.2708C32.0156 61.463 32.1743 61.6929 32.2835 61.9471C32.3927 62.2013 32.4501 62.4746 32.4525 62.7513C32.4549 63.0279 32.4022 63.3022 32.2975 63.5582C32.1927 63.8143 32.038 64.0469 31.8424 64.2425C31.6468 64.4381 31.4142 64.5928 31.1582 64.6976C30.9021 64.8023 30.6278 64.855 30.3512 64.8526C30.0746 64.8502 29.8012 64.7927 29.547 64.6836C29.2928 64.5744 29.0629 64.4157 28.8708 64.2167L17.0833 52.4333ZM49.4916 20.0208C49.2926 19.8287 49.1339 19.5988 49.0247 19.3446C48.9155 19.0904 48.8581 18.8171 48.8557 18.5404C48.8533 18.2638 48.906 17.9895 49.0107 17.7334C49.1155 17.4774 49.2702 17.2448 49.4658 17.0492C49.6614 16.8536 49.894 16.6989 50.15 16.5941C50.4061 16.4894 50.6804 16.4367 50.957 16.4391C51.2336 16.4415 51.507 16.4989 51.7612 16.6081C52.0154 16.7173 52.2452 16.876 52.4374 17.075L64.2249 28.8625C64.4239 29.0547 64.5826 29.2846 64.6918 29.5387C64.801 29.7929 64.8585 30.0663 64.8609 30.3429C64.8633 30.6195 64.8106 30.8939 64.7058 31.1499C64.6011 31.4059 64.4464 31.6386 64.2508 31.8342C64.0551 32.0298 63.8225 32.1845 63.5665 32.2892C63.3105 32.394 63.0361 32.4467 62.7595 32.4443C62.4829 32.4419 62.2095 32.3844 61.9553 32.2752C61.7012 32.166 61.4713 32.0073 61.2791 31.8083L49.4916 20.0208ZM76.3333 80.9833L51.2999 52.1L52.1083 51.2875L80.9958 76.3208C81.3285 76.6211 81.5966 76.9859 81.7839 77.393C81.9712 77.8002 82.0737 78.2412 82.0852 78.6892C82.0966 79.1372 82.0169 79.5829 81.8507 79.9991C81.6845 80.4153 81.4354 80.7933 81.1185 81.1102C80.8016 81.4271 80.4235 81.6762 80.0073 81.8424C79.5911 82.0086 79.1455 82.0884 78.6974 82.0769C78.2494 82.0654 77.8084 81.9629 77.4013 81.7756C76.9941 81.5884 76.6293 81.3202 76.3291 80.9875L76.3333 80.9833Z" fill="url(#paint0_linear_14_34)"/>
    </g>
    <defs>
        <linearGradient id="paint0_linear_14_34" x1="49.3005" y1="8.13431" x2="49.3005" y2="90.453" gradientUnits="userSpaceOnUse">
            <stop stop-color="#02AABD"/>
            <stop offset="1" stop-color="#00CDAC"/>
        </linearGradient>
        <clipPath id="clip0_14_34">
            <rect width="100" height="100" fill="white"/>
        </clipPath>
    </defs>
</svg>
