<svg width="100" height="100" viewBox="0 0 100 100" fill="none" xmlns="http://www.w3.org/2000/svg">
    <path fill-rule="evenodd" clip-rule="evenodd" d="M18.2299 12.45C17.0205 11.9064 15.6447 11.8655 14.4052 12.3362C13.1656 12.8069 12.1637 13.7507 11.6199 14.96L0.804941 38.975C0.260717 40.1832 0.218328 41.5579 0.687086 42.7973C1.15584 44.0367 2.09741 45.0394 3.30494 45.585L10.7549 48.94C11.3534 49.2102 11.9993 49.36 12.6557 49.3806C13.312 49.4012 13.966 49.2923 14.5803 49.0602C15.1945 48.828 15.7571 48.4771 16.2357 48.0276C16.7144 47.578 17.0998 47.0385 17.3699 46.44L28.1849 22.42C28.7292 21.2118 28.7716 19.837 28.3028 18.5977C27.834 17.3583 26.8925 16.3556 25.6849 15.81L18.2349 12.455L18.2299 12.45ZM9.36494 42.09C9.7727 42.2738 10.2127 42.3756 10.6597 42.3894C11.1068 42.4032 11.5522 42.3288 11.9706 42.1705C12.3889 42.0122 12.7719 41.773 13.0978 41.4667C13.4237 41.1603 13.6861 40.7927 13.8699 40.385C14.0538 39.9772 14.1555 39.5373 14.1693 39.0902C14.1832 38.6431 14.1088 38.1977 13.9505 37.7794C13.7921 37.361 13.553 36.978 13.2466 36.6521C12.9402 36.3262 12.5727 36.0638 12.1649 35.88C11.3414 35.5087 10.4042 35.4797 9.55932 35.7995C8.71447 36.1192 8.03125 36.7615 7.65994 37.585C7.28864 38.4085 7.25968 39.3458 7.57943 40.1906C7.89918 41.0355 8.54144 41.7187 9.36494 42.09ZM95.075 46.24C95.6889 46.007 96.251 45.6553 96.729 45.205C97.2071 44.7547 97.5917 44.2147 97.861 43.6157C98.1303 43.0168 98.279 42.3706 98.2985 41.7142C98.3181 41.0578 98.2081 40.4039 97.9749 39.79L88.6499 15.17C88.4174 14.5556 88.0661 13.993 87.616 13.5144C87.1659 13.0358 86.626 12.6507 86.027 12.3809C85.4279 12.1111 84.7816 11.962 84.125 11.9421C83.4683 11.9222 82.8142 12.0319 82.2 12.265L74.5649 15.16C73.951 15.393 73.3889 15.7447 72.9109 16.195C72.4328 16.6453 72.0482 17.1853 71.7789 17.7843C71.5096 18.3832 71.3609 19.0294 71.3414 19.6858C71.3218 20.3422 71.4318 20.9961 71.6649 21.61L80.9949 46.235C81.4646 47.4747 82.4074 48.4771 83.616 49.0219C84.8246 49.5666 86.2001 49.6091 87.44 49.14L95.08 46.245L95.075 46.24ZM80.3899 19.015C79.9717 19.1736 79.5888 19.413 79.263 19.7195C78.9373 20.0261 78.6751 20.3938 78.4915 20.8017C78.3079 21.2096 78.2064 21.6496 78.1928 22.0967C78.1792 22.5438 78.2539 22.9892 78.4125 23.4075C78.571 23.8258 78.8104 24.2087 79.117 24.5344C79.4235 24.8602 79.7913 25.1223 80.1991 25.306C80.607 25.4896 81.0471 25.5911 81.4942 25.6046C81.9413 25.6182 82.3867 25.5436 82.805 25.385C83.6497 25.0647 84.3326 24.4221 84.7034 23.5983C85.0743 22.7745 85.1027 21.8372 84.7824 20.9925C84.4622 20.1478 83.8195 19.4649 82.9958 19.094C82.172 18.7232 81.2347 18.6947 80.3899 19.015Z" fill="url(#paint0_linear_14_41)"/>
    <path fill-rule="evenodd" clip-rule="evenodd" d="M74.4252 20.535H74.4652C74.7925 20.5064 75.111 20.4137 75.4024 20.262C75.6939 20.1104 75.9527 19.9028 76.1639 19.6512C76.3752 19.3995 76.5348 19.1087 76.6337 18.7954C76.7325 18.4821 76.7687 18.1523 76.7402 17.825C76.7116 17.4977 76.6188 17.1792 76.4672 16.8877C76.3155 16.5962 76.108 16.3375 75.8563 16.1262C75.6047 15.915 75.3139 15.7554 75.0006 15.6565C74.6872 15.5576 74.3575 15.5214 74.0302 15.55H73.9902L73.8602 15.565L73.3752 15.615C70.8435 15.8556 68.3164 16.1423 65.7952 16.475C61.3252 17.06 55.7802 17.96 52.1552 19.17C50.3902 19.755 48.5302 20.89 46.7552 22.19C44.8433 23.6112 43.0168 25.1439 41.2852 26.78C38.1089 29.7771 35.0739 32.9205 32.1902 36.2C30.0952 38.57 29.6102 42.35 32.0702 45.03C33.6702 46.76 36.1702 48.95 39.4102 49.93C42.7952 50.945 46.6952 50.55 50.6802 47.59L55.6752 44.365C55.7046 44.3458 55.7346 44.3274 55.7652 44.31C56.4802 44.745 57.4752 45.495 58.6652 46.49C59.9652 47.58 61.3752 48.865 62.6902 50.1C64.1824 51.507 65.6493 52.9405 67.0902 54.4L67.3652 54.685L67.4352 54.755L67.4602 54.78L67.7552 55.08L68.1302 55.275C70.1452 56.275 72.3602 55.915 74.0802 55.335C75.8702 54.735 77.6502 53.715 79.1652 52.71C81.0633 51.4353 82.8603 50.0161 84.5402 48.465L84.6302 48.385L84.6552 48.36L84.6602 48.355C84.6602 48.355 84.2202 46.805 82.5002 44.995L81.1452 46.695L80.0002 50L67.4602 54.78L70.0002 52.5L68.6602 48.915C67.822 48.0896 66.9753 47.2729 66.1202 46.465C64.7702 45.195 63.2802 43.84 61.8702 42.665C60.5052 41.515 59.0852 40.425 57.9002 39.775C55.9302 38.695 54.0002 39.495 52.9602 40.17L47.8202 43.49L47.7502 43.54C44.9752 45.62 42.6952 45.7 40.8502 45.145C38.8502 44.545 37.0752 43.085 35.7502 41.645C35.3352 41.195 35.2152 40.33 35.9352 39.515C38.7113 36.356 41.6328 33.3277 44.6902 30.44C46.3952 28.855 48.1052 27.39 49.7002 26.225C51.3302 25.035 52.7002 24.26 53.7352 23.915C56.8552 22.875 61.9602 22.02 66.4552 21.425C68.9132 21.1019 71.377 20.8235 73.8452 20.59L74.3102 20.545L74.4252 20.535Z" fill="url(#paint1_linear_14_41)"/>
    <path d="M70.635 50.885C69.982 50.223 69.3236 49.5663 68.66 48.915L70 52.5L67.46 54.785L80 50L81.145 46.7L82.5 45L81.225 44.73L81.21 44.74L81.14 44.805L80.87 45.055C79.4611 46.3223 77.9658 47.4901 76.395 48.55C75.045 49.45 73.68 50.2 72.48 50.6C71.55 50.915 70.97 50.94 70.635 50.885Z" fill="url(#paint2_linear_14_41)"/>
    <path fill-rule="evenodd" clip-rule="evenodd" d="M25.2348 25.34L24.2498 23.04L23.2648 20.74L23.4648 20.66L24.0298 20.42C26.8019 19.2429 29.5854 18.0928 32.3798 16.97C34.6493 16.0538 36.9364 15.182 39.2398 14.355C40.2548 13.995 41.1998 13.685 41.9898 13.46C42.6698 13.26 43.5398 13.04 44.2498 13.04C44.8998 13.04 45.5848 13.19 46.1498 13.34C46.7598 13.505 47.4298 13.725 48.1098 13.975C49.4798 14.475 51.0248 15.125 52.4548 15.755C54.1227 16.5004 55.7763 17.2772 57.4148 18.085L57.7448 18.245L57.8348 18.29L57.8648 18.305C58.4583 18.6014 58.9096 19.1214 59.1197 19.7505C59.3297 20.3797 59.2812 21.0666 58.9848 21.66C58.6885 22.2534 58.1685 22.7048 57.5393 22.9149C56.9101 23.1249 56.2233 23.0764 55.6298 22.78L55.6048 22.765L55.5248 22.725L55.2148 22.575C53.6304 21.7957 52.0318 21.0456 50.4198 20.325C49.1001 19.7309 47.761 19.1806 46.4048 18.675C45.8972 18.4865 45.3817 18.3197 44.8598 18.175C44.6646 18.1187 44.4658 18.0753 44.2648 18.045L44.2198 18.055C44.1198 18.07 43.8548 18.125 43.3598 18.265C42.5322 18.5095 41.7119 18.7779 40.8998 19.07C38.9598 19.755 36.5748 20.68 34.2398 21.615C31.4766 22.7217 28.7248 23.8568 25.9848 25.02L25.4298 25.255L25.2348 25.34ZM21.9498 24.025C21.6896 23.4156 21.6819 22.7279 21.9285 22.1129C22.1751 21.4978 22.6557 21.0058 23.2648 20.745L24.2498 23.045L25.2348 25.34C24.9328 25.4696 24.6082 25.5384 24.2796 25.5425C23.951 25.5466 23.6248 25.4858 23.3197 25.3636C23.0146 25.2415 22.7365 25.0604 22.5015 24.8307C22.2664 24.601 22.079 24.3272 21.9498 24.025ZM12.4348 43.825C12.6603 43.5863 12.9307 43.3943 13.2304 43.26C13.5301 43.1258 13.8533 43.0519 14.1816 43.0426C14.5099 43.0333 14.8368 43.0888 15.1436 43.2059C15.4505 43.323 15.7312 43.4994 15.9698 43.725L14.2498 45.54L12.5348 47.36C12.2961 47.1345 12.1041 46.8642 11.9699 46.5645C11.8356 46.2647 11.7618 45.9415 11.7525 45.6132C11.7432 45.285 11.7987 44.9581 11.9157 44.6512C12.0328 44.3444 12.2092 44.0637 12.4348 43.825ZM35.2848 60.76L49.0998 65.94C50.448 66.4452 51.9132 66.5516 53.3202 66.2466C54.7273 65.9416 56.0168 65.2381 57.0348 64.22L67.4848 53.77C67.9543 53.3012 68.5907 53.0382 69.2541 53.0386C69.9175 53.0391 70.5536 53.3031 71.0223 53.7725C71.4911 54.2419 71.7542 54.8784 71.7537 55.5418C71.7533 56.2052 71.4893 56.8412 71.0198 57.31L60.5698 67.76C58.8724 69.4557 56.7228 70.627 54.3778 71.1341C52.0327 71.6413 49.5912 71.4628 47.3448 70.62L33.2448 65.335L33.1298 65.28C32.3655 64.8573 31.6394 64.3688 30.9598 63.82C30.1498 63.195 29.1998 62.42 28.1748 61.545C25.8796 59.5831 23.616 57.5845 21.3848 55.55C18.6583 53.0734 15.9532 50.5733 13.2698 48.05L12.7248 47.54L12.5348 47.36L14.2498 45.54L15.9698 43.725L16.1548 43.9L16.6898 44.405C19.3525 46.9073 22.036 49.3873 24.7398 51.845C27.0398 53.93 29.4148 56.045 31.4048 57.735C32.4048 58.58 33.2898 59.3 34.0048 59.855C34.6648 60.36 35.0798 60.64 35.2848 60.755V60.76ZM18.3498 71.44C18.7749 70.9332 19.3835 70.6154 20.0423 70.5564C20.7011 70.4974 21.3565 70.7018 21.8648 71.125L26.6598 75.125C27.7344 76.0221 29.0386 76.6006 30.4248 76.795L36.6048 77.665C36.9373 77.7015 37.2591 77.8043 37.5511 77.9673C37.8431 78.1304 38.0995 78.3504 38.3049 78.6143C38.5104 78.8782 38.6608 79.1807 38.7473 79.5038C38.8338 79.8268 38.8545 80.164 38.8083 80.4953C38.7622 80.8265 38.65 81.1451 38.4785 81.4323C38.3069 81.7194 38.0795 81.9692 37.8097 82.1668C37.5399 82.3645 37.2332 82.506 36.9077 82.583C36.5822 82.66 36.2446 82.6709 35.9148 82.615L29.7298 81.75C27.4192 81.4255 25.2456 80.4608 23.4548 78.965L18.6598 74.965C18.4074 74.7544 18.199 74.4961 18.0465 74.2049C17.8941 73.9137 17.8005 73.5953 17.7713 73.2678C17.742 72.9404 17.7776 72.6104 17.876 72.2968C17.9745 71.9832 18.1338 71.692 18.3448 71.44H18.3498Z" fill="url(#paint3_linear_14_41)"/>
    <defs>
        <linearGradient id="paint0_linear_14_41" x1="49.3323" y1="11.9398" x2="49.3323" y2="49.4635" gradientUnits="userSpaceOnUse">
            <stop stop-color="#02AABD"/>
            <stop offset="1" stop-color="#00CDAC"/>
        </linearGradient>
        <linearGradient id="paint1_linear_14_41" x1="57.5374" y1="15.5405" x2="57.5374" y2="55.9027" gradientUnits="userSpaceOnUse">
            <stop stop-color="#02AABD"/>
            <stop offset="1" stop-color="#00CDAC"/>
        </linearGradient>
        <linearGradient id="paint2_linear_14_41" x1="74.98" y1="44.73" x2="74.98" y2="54.785" gradientUnits="userSpaceOnUse">
            <stop stop-color="#02AABD"/>
            <stop offset="1" stop-color="#00CDAC"/>
        </linearGradient>
        <linearGradient id="paint3_linear_14_41" x1="41.7526" y1="13.04" x2="41.7526" y2="82.6501" gradientUnits="userSpaceOnUse">
            <stop stop-color="#02AABD"/>
            <stop offset="1" stop-color="#00CDAC"/>
        </linearGradient>
    </defs>
</svg>
