<svg width="50" height="50" viewBox="0 0 50 50" fill="none" xmlns="http://www.w3.org/2000/svg">
    <path d="M27.1417 4.16876C28.662 4.16293 30.1823 4.17821 31.7021 4.2146L32.1063 4.22918C32.573 4.24585 33.0334 4.26668 33.5896 4.29168C35.8063 4.39585 37.3188 4.74585 38.6459 5.26043C40.0209 5.7896 41.1792 6.50626 42.3376 7.6646C43.3967 8.70544 44.2164 9.96448 44.7396 11.3542C45.2542 12.6813 45.6042 14.1958 45.7084 16.4125C45.7334 16.9667 45.7542 17.4292 45.7709 17.8958L45.7834 18.3C45.8204 19.8192 45.8364 21.3388 45.8313 22.8583L45.8334 24.4125V27.1417C45.8385 28.662 45.8226 30.1823 45.7855 31.7021L45.773 32.1063C45.7563 32.5729 45.7355 33.0333 45.7105 33.5896C45.6063 35.8063 45.2521 37.3188 44.7396 38.6458C44.2181 40.037 43.3982 41.2971 42.3376 42.3375C41.2958 43.3965 40.0361 44.2162 38.6459 44.7396C37.3188 45.2542 35.8063 45.6042 33.5896 45.7084C33.0334 45.7333 32.573 45.7542 32.1063 45.7708L31.7021 45.7833C30.1823 45.8204 28.662 45.8364 27.1417 45.8313L25.5876 45.8334H22.8605C21.3402 45.8385 19.8199 45.8225 18.3001 45.7854L17.8959 45.7729C17.4013 45.755 16.9069 45.7342 16.4126 45.7104C14.1959 45.6063 12.6834 45.2521 11.3542 44.7396C9.96399 44.2174 8.70472 43.3976 7.66465 42.3375C6.60432 41.2964 5.78386 40.0366 5.26048 38.6458C4.7459 37.3188 4.3959 35.8063 4.29173 33.5896C4.26853 33.0953 4.24769 32.6008 4.22923 32.1063L4.21881 31.7021C4.1804 30.1823 4.16304 28.662 4.16673 27.1417V22.8583C4.16091 21.3388 4.17619 19.8192 4.21256 18.3L4.22715 17.8958C4.24381 17.4292 4.26465 16.9667 4.28965 16.4125C4.39381 14.1938 4.74381 12.6833 5.2584 11.3542C5.78209 9.9638 6.60415 8.70511 7.66673 7.66668C8.70609 6.60575 9.96457 5.78454 11.3542 5.26043C12.6834 4.74585 14.1938 4.39585 16.4126 4.29168L17.8959 4.22918L18.3001 4.21876C19.8192 4.18037 21.3388 4.16301 22.8584 4.16668L27.1417 4.16876ZM25.0001 14.5854C23.6199 14.5659 22.2496 14.8209 20.9688 15.3356C19.688 15.8502 18.5222 16.6143 17.5393 17.5835C16.5564 18.5526 15.7759 19.7074 15.2432 20.9808C14.7104 22.2542 14.4361 23.6207 14.4361 25.0011C14.4361 26.3814 14.7104 27.748 15.2432 29.0213C15.7759 30.2947 16.5564 31.4495 17.5393 32.4187C18.5222 33.3878 19.688 34.1519 20.9688 34.6665C22.2496 35.1812 23.6199 35.4362 25.0001 35.4167C27.7627 35.4167 30.4123 34.3192 32.3658 32.3657C34.3193 30.4122 35.4167 27.7627 35.4167 25C35.4167 22.2373 34.3193 19.5878 32.3658 17.6343C30.4123 15.6808 27.7627 14.5854 25.0001 14.5854ZM25.0001 18.7521C25.8303 18.7368 26.6552 18.8871 27.4267 19.1942C28.1982 19.5013 28.9008 19.9591 29.4933 20.5407C30.0859 21.1224 30.5567 21.8163 30.8781 22.582C31.1995 23.3476 31.3651 24.1696 31.3652 25C31.3653 25.8304 31.2 26.6524 30.8789 27.4182C30.5577 28.1839 30.0872 28.878 29.4948 29.4599C28.9024 30.0418 28.2 30.4997 27.4287 30.8071C26.6573 31.1145 25.8324 31.265 25.0021 31.25C23.3445 31.25 21.7548 30.5915 20.5827 29.4194C19.4106 28.2473 18.7521 26.6576 18.7521 25C18.7521 23.3424 19.4106 21.7527 20.5827 20.5806C21.7548 19.4085 23.3445 18.75 25.0021 18.75L25.0001 18.7521ZM35.9376 11.4604C35.2655 11.4873 34.6298 11.7732 34.1638 12.2583C33.6978 12.7433 33.4375 13.3899 33.4375 14.0625C33.4375 14.7351 33.6978 15.3817 34.1638 15.8667C34.6298 16.3518 35.2655 16.6377 35.9376 16.6646C36.6282 16.6646 37.2906 16.3902 37.779 15.9019C38.2674 15.4135 38.5417 14.7511 38.5417 14.0604C38.5417 13.3698 38.2674 12.7074 37.779 12.219C37.2906 11.7306 36.6282 11.4563 35.9376 11.4563V11.4604Z" fill="url(#paint0_linear_23_22)"/>
    <defs>
        <linearGradient id="paint0_linear_23_22" x1="24.9999" y1="4.1662" x2="24.9999" y2="45.8343" gradientUnits="userSpaceOnUse">
            <stop stop-color="#02AABD"/>
            <stop offset="1" stop-color="#00CDAC"/>
        </linearGradient>
    </defs>
</svg>
