<svg width="50" height="50" viewBox="0 0 50 50" fill="none" xmlns="http://www.w3.org/2000/svg">
    <path d="M22.3958 27.1667C22.3958 25.9792 21.4167 25 20.2292 25C19.0417 25 18.0625 25.9792 18.0625 27.1667C18.0625 27.7413 18.2908 28.2924 18.6971 28.6987C19.1034 29.1051 19.6545 29.3333 20.2292 29.3333C20.8038 29.3333 21.3549 29.1051 21.7612 28.6987C22.1676 28.2924 22.3958 27.7413 22.3958 27.1667ZM29.3542 32.1042C28.4167 33.0417 26.4167 33.375 25 33.375C23.5833 33.375 21.5833 33.0417 20.6458 32.1042C20.5952 32.0499 20.5339 32.0067 20.4658 31.9771C20.3977 31.9475 20.3242 31.9323 20.25 31.9323C20.1758 31.9323 20.1023 31.9475 20.0342 31.9771C19.9661 32.0067 19.9048 32.0499 19.8542 32.1042C19.7999 32.1548 19.7567 32.2161 19.7271 32.2842C19.6975 32.3523 19.6823 32.4258 19.6823 32.5C19.6823 32.5742 19.6975 32.6477 19.7271 32.7158C19.7567 32.7839 19.7999 32.8452 19.8542 32.8958C21.3333 34.375 24.1667 34.5 25 34.5C25.8333 34.5 28.6667 34.375 30.1458 32.8958C30.2001 32.8452 30.2433 32.7839 30.2729 32.7158C30.3025 32.6477 30.3177 32.5742 30.3177 32.5C30.3177 32.4258 30.3025 32.3523 30.2729 32.2842C30.2433 32.2161 30.2001 32.1548 30.1458 32.1042C29.9375 31.8958 29.5833 31.8958 29.3542 32.1042ZM29.7708 25C28.5833 25 27.6042 25.9792 27.6042 27.1667C27.6042 28.3542 28.5833 29.3333 29.7708 29.3333C30.9583 29.3333 31.9375 28.3542 31.9375 27.1667C31.9375 25.9792 30.9792 25 29.7708 25Z" fill="url(#paint0_linear_22_13)"/>
    <path d="M24.9998 4.16666C13.4998 4.16666 4.1665 13.5 4.1665 25C4.1665 36.5 13.4998 45.8333 24.9998 45.8333C36.4998 45.8333 45.8332 36.5 45.8332 25C45.8332 13.5 36.4998 4.16666 24.9998 4.16666ZM37.0832 27.7708C37.1248 28.0625 37.1457 28.375 37.1457 28.6875C37.1457 33.3542 31.7082 37.1458 24.9998 37.1458C18.2915 37.1458 12.854 33.3542 12.854 28.6875C12.854 28.375 12.8748 28.0625 12.9165 27.7708C11.854 27.2917 11.1248 26.2292 11.1248 25C11.1217 24.4026 11.2953 23.8176 11.6236 23.3185C11.9519 22.8194 12.4204 22.4284 12.9702 22.1947C13.52 21.9609 14.1266 21.8949 14.7138 22.0048C15.301 22.1147 15.8426 22.3957 16.2707 22.8125C18.3748 21.2917 21.2915 20.3333 24.5207 20.2292L26.0623 12.9583C26.0832 12.8125 26.1665 12.6875 26.2915 12.625C26.4165 12.5417 26.5623 12.5208 26.7082 12.5417L31.7498 13.625C31.9208 13.2783 32.1815 12.9836 32.5047 12.7716C32.828 12.5596 33.2021 12.4379 33.5882 12.4192C33.9743 12.4005 34.3584 12.4854 34.7007 12.6652C35.0429 12.845 35.3308 13.1131 35.5345 13.4416C35.7382 13.7702 35.8503 14.1473 35.8591 14.5337C35.868 14.9202 35.7733 15.302 35.5848 15.6396C35.3964 15.9771 35.121 16.2581 34.7874 16.4533C34.4537 16.6486 34.0739 16.751 33.6873 16.75C32.5207 16.75 31.5832 15.8333 31.5207 14.6875L26.9998 13.7292L25.6248 20.2292C28.8123 20.3333 31.6665 21.3125 33.7498 22.8125C34.0692 22.5075 34.4514 22.276 34.8696 22.1342C35.2877 21.9923 35.7319 21.9435 36.1709 21.9913C36.6099 22.039 37.0332 22.1821 37.4111 22.4105C37.7891 22.6389 38.1125 22.9471 38.3589 23.3136C38.6053 23.6801 38.7686 24.0959 38.8374 24.5321C38.9063 24.9683 38.879 25.4143 38.7575 25.8389C38.636 26.2634 38.4232 26.6563 38.134 26.99C37.8448 27.3237 37.4861 27.5902 37.0832 27.7708Z" fill="url(#paint1_linear_22_13)"/>
    <defs>
        <linearGradient id="paint0_linear_22_13" x1="25" y1="25" x2="25" y2="34.5" gradientUnits="userSpaceOnUse">
            <stop stop-color="#02AABD"/>
            <stop offset="1" stop-color="#00CDAC"/>
        </linearGradient>
        <linearGradient id="paint1_linear_22_13" x1="24.9998" y1="4.16666" x2="24.9998" y2="45.8333" gradientUnits="userSpaceOnUse">
            <stop stop-color="#02AABD"/>
            <stop offset="1" stop-color="#00CDAC"/>
        </linearGradient>
    </defs>
</svg>
