<svg width="100" height="100" viewBox="0 0 100 100" fill="none" xmlns="http://www.w3.org/2000/svg">
    <path d="M70.8333 5.03333L76.3333 15.3375L86.6333 20.8333L76.3333 26.3292L70.8416 36.625L65.3333 26.3333L55.0333 20.8333L65.3374 15.3417L70.8333 5.03333ZM44.4458 38.8875L65.2791 50L44.4458 61.1083L33.3374 81.9417L22.2249 61.1083L1.3916 50L22.2249 38.8875L33.3374 18.0542L44.4458 38.8875ZM47.5708 50L38.2916 45.0417L33.3374 35.7625L28.3833 45.0458L19.0999 50L28.3833 54.95L33.3374 64.2333L38.2874 54.95L47.5708 50ZM81.9458 68.0542L75.0041 55.0333L68.0583 68.0542L55.0374 75L68.0583 81.9417L75.0041 94.9625L81.9458 81.9417L94.9666 75L81.9458 68.0542Z" fill="url(#paint0_linear_4_3)"/>
    <defs>
        <linearGradient id="paint0_linear_4_3" x1="48.1791" y1="5.03333" x2="48.1791" y2="94.9625" gradientUnits="userSpaceOnUse">
            <stop stop-color="#02AABD"/>
            <stop offset="1" stop-color="#00CDAC"/>
        </linearGradient>
    </defs>
</svg>
